<svg width="1599" height="1193" xmlns="http://www.w3.org/2000/svg" xmlns:xlink="http://www.w3.org/1999/xlink" xml:space="preserve" overflow="hidden"><defs><clipPath id="clip0"><rect x="768" y="1069" width="1599" height="1193"/></clipPath></defs><g clip-path="url(#clip0)" transform="translate(-768 -1069)"><path d="M1172 1778.87 1189.67 1777.91 1207.07 1775.98 1224.16 1773.12 1240.93 1769.33 1257.33 1764.66 1273.36 1759.13 1288.97 1752.76 1304.14 1745.58 1318.85 1737.63 1333.07 1728.92 1346.76 1719.48 1359.91 1709.35 1372.49 1698.54 1384.46 1687.09 1395.81 1675.01 1406.51 1662.35 1416.52 1649.12 1425.83 1635.35 1434.39 1621.07 1442.2 1606.31 1449.22 1591.09 1455.42 1575.44 1460.77 1559.38 1465.26 1542.95 1468.84 1526.17 1471.51 1509.07 1473.22 1491.67 1473.95 1474" stroke="#000000" stroke-width="4.125" stroke-linejoin="round" stroke-miterlimit="10" stroke-dasharray="4.125 12.375" fill="none" fill-rule="evenodd"/><path d="M1473.87 1460.95 1472.91 1443.33 1470.97 1426 1468.1 1408.96 1464.3 1392.25 1459.61 1375.9 1454.06 1359.93 1447.67 1344.37 1440.48 1329.25 1432.49 1314.59 1423.76 1300.42 1414.29 1286.77 1404.12 1273.66 1393.28 1261.12 1381.79 1249.19 1369.67 1237.88 1356.97 1227.22 1343.69 1217.24 1329.88 1207.96 1315.55 1199.42 1300.74 1191.64 1285.47 1184.65 1269.77 1178.47 1253.66 1173.13 1237.18 1168.66 1220.34 1165.09 1203.18 1162.43 1185.73 1160.73 1168 1160" stroke="#000000" stroke-width="4.125" stroke-linejoin="round" stroke-miterlimit="10" stroke-dasharray="4.125 12.375" fill="none" fill-rule="evenodd"/><path d="M1155.95 1160 1138.28 1160.96 1120.88 1162.88 1103.79 1165.75 1087.02 1169.53 1070.62 1174.21 1054.59 1179.74 1038.98 1186.11 1023.81 1193.28 1009.1 1201.24 994.884 1209.95 981.187 1219.38 968.037 1229.52 955.46 1240.33 943.484 1251.78 932.135 1263.85 921.441 1276.52 911.428 1289.75 902.123 1303.52 893.555 1317.8 885.748 1332.56 878.732 1347.78 872.532 1363.43 867.177 1379.49 862.691 1395.92 859.104 1412.7 856.442 1429.8 854.731 1447.2 854 1464.87" stroke="#000000" stroke-width="4.125" stroke-linejoin="round" stroke-miterlimit="10" stroke-dasharray="4.125 12.375" fill="none" fill-rule="evenodd"/><path d="M854 1478 854.96 1495.61 856.892 1512.95 859.77 1529.99 863.566 1546.7 868.253 1563.05 873.804 1579.02 880.192 1594.58 887.391 1609.7 895.373 1624.36 904.11 1638.53 913.577 1652.18 923.746 1665.29 934.59 1677.83 946.081 1689.76 958.194 1701.07 970.901 1711.73 984.174 1721.71 997.987 1730.99 1012.31 1739.53 1027.13 1747.31 1042.4 1754.3 1058.1 1760.48 1074.21 1765.82 1090.69 1770.29 1107.53 1773.86 1124.69 1776.52 1142.14 1778.22 1159.87 1778.95" stroke="#000000" stroke-width="4.125" stroke-linejoin="round" stroke-miterlimit="10" stroke-dasharray="4.125 12.375" fill="none" fill-rule="evenodd"/><path d="M856.127 1469.48 855.521 1468.02 854.063 1467.42 852.605 1468.02 852 1469.48 852.605 1470.93 854.063 1471.54 855.521 1470.93 856.127 1469.48Z" fill-rule="evenodd"/><path d="M1166.04 1778.89 1165.43 1777.44 1163.97 1776.83 1162.51 1777.44 1161.91 1778.89 1162.51 1780.35 1163.97 1780.95 1165.43 1780.35 1166.04 1778.89Z" fill-rule="evenodd"/><path d="M1166.04 1160.06 1165.43 1158.6 1163.97 1158 1162.51 1158.6 1161.91 1160.06 1162.51 1161.52 1163.97 1162.12 1165.43 1161.52 1166.04 1160.06Z" fill-rule="evenodd"/><path d="M1475.95 1469.48 1475.34 1468.02 1473.89 1467.42 1472.43 1468.02 1471.82 1469.48 1472.43 1470.93 1473.89 1471.54 1475.34 1470.93 1475.95 1469.48Z" fill-rule="evenodd"/><path d="M1018.91 1407 958 1442 958 1511.99 1018.91 1546.98 1079.82 1511.99 1079.82 1442 1018.91 1407Z" fill="#FCC00C" fill-rule="evenodd"/><path d="M1018.48 1266 1002.4 1268.16 987.954 1274.26 975.714 1283.71 966.257 1295.95 960.16 1310.4 958 1326.48 960.16 1342.55 966.257 1357 975.714 1369.24 987.954 1378.7 1002.4 1384.79 1018.48 1386.95 1034.55 1384.79 1049 1378.7 1061.24 1369.24 1070.7 1357 1076.79 1342.55 1078.95 1326.48 1076.79 1310.4 1070.7 1295.95 1061.24 1283.71 1049 1274.26 1034.55 1268.16 1018.48 1266Z" fill="#FCC00C" fill-rule="evenodd"/><path d="M959 1546 959 1684.96 1078.86 1615.52 959 1546Z" fill="#FCC00C" fill-rule="evenodd"/><path d="M1171.41 1407 1111 1442 1111 1511.99 1171.41 1546.98 1231.82 1511.99 1231.82 1442 1171.41 1407Z" fill-rule="evenodd"/><path d="M1171.48 1266 1155.4 1268.16 1140.95 1274.26 1128.71 1283.71 1119.26 1295.95 1113.16 1310.4 1111 1326.48 1113.16 1342.55 1119.26 1357 1128.71 1369.24 1140.95 1378.7 1155.4 1384.79 1171.48 1386.95 1187.55 1384.79 1202 1378.7 1214.24 1369.24 1223.7 1357 1229.79 1342.55 1231.95 1326.48 1229.79 1310.4 1223.7 1295.95 1214.24 1283.71 1202 1274.26 1187.55 1268.16 1171.48 1266Z" fill-rule="evenodd"/><path d="M1111 1546 1111 1684.96 1231.86 1615.52 1111 1546Z" fill-rule="evenodd"/><path d="M1328.41 1407 1268 1442 1268 1511.99 1328.41 1546.98 1388.82 1511.99 1388.82 1442 1328.41 1407Z" fill="#646363" fill-rule="evenodd"/><path d="M1328.48 1266 1312.4 1268.16 1297.95 1274.26 1285.71 1283.71 1276.26 1295.95 1270.16 1310.4 1268 1326.48 1270.16 1342.55 1276.26 1357 1285.71 1369.24 1297.95 1378.7 1312.4 1384.79 1328.48 1386.95 1344.55 1384.79 1359 1378.7 1371.24 1369.24 1380.7 1357 1386.79 1342.55 1388.95 1326.48 1386.79 1310.4 1380.7 1295.95 1371.24 1283.71 1359 1274.26 1344.55 1268.16 1328.48 1266Z" fill="#646363" fill-rule="evenodd"/><path d="M1268 1546 1268 1684.96 1387.86 1615.52 1268 1546Z" fill="#646363" fill-rule="evenodd"/><path d="M1687.09 1353.39 1687.09 1401.15 1508 1401.15 1508 1425.03 1687.09 1425.03 1687.09 1472.79 1746.78 1413.09 1687.09 1353.39Z" fill-rule="evenodd"/><path d="M1687.09 1234 1687.09 1281.76 1508 1281.76 1508 1305.64 1687.09 1305.64 1687.09 1353.39 1746.78 1293.7 1687.09 1234Z" fill-rule="evenodd"/><path d="M1908.39 1220 1891.19 1221.26 1874.78 1224.93 1859.32 1230.82 1845.01 1238.75 1832.03 1248.55 1820.55 1260.03 1810.75 1273.02 1802.82 1287.33 1796.93 1302.78 1793.26 1319.2 1792 1336.4 1793.26 1353.6 1796.93 1370.02 1802.82 1385.48 1810.75 1399.79 1820.55 1412.77 1832.03 1424.26 1845.01 1434.05 1859.32 1441.99 1874.78 1447.88 1891.19 1451.55 1908.39 1452.81 1925.6 1451.55 1942.02 1447.88 1957.47 1441.99 1971.78 1434.05 1984.77 1424.26 1996.25 1412.77 2006.05 1399.79 2013.98 1385.48 2019.87 1370.02 2023.54 1353.6 2024.8 1336.4 2023.54 1319.2 2019.87 1302.78 2013.98 1287.33 2006.05 1273.02 1996.25 1260.03 1984.77 1248.55 1971.78 1238.75 1957.47 1230.82 1942.02 1224.93 1925.6 1221.26 1908.39 1220Z" fill="#FCC00C" fill-rule="evenodd"/><path d="M1955.27 1401.12 1861.72 1401.12 1861.72 1405.78 1955.27 1405.78 1955.27 1401.12Z" fill-rule="evenodd"/><path d="M1887.44 1382.48 1882.76 1382.48 1882.76 1401.12 1887.44 1401.12 1887.44 1382.48Z" fill-rule="evenodd"/><path d="M1934.22 1382.48 1929.54 1382.48 1929.54 1401.12 1934.22 1401.12 1934.22 1382.48Z" fill-rule="evenodd"/><path d="M1969.3 1284.62 1847.68 1284.62 1843.14 1285.54 1839.42 1288.04 1836.92 1291.74 1836 1296.27 1836 1370.83 1836.92 1375.36 1839.42 1379.07 1843.14 1381.57 1847.68 1382.48 1969.3 1382.48 1973.85 1381.57 1977.57 1379.07 1978.41 1377.82 1847.68 1377.82 1844.96 1377.27 1842.73 1375.77 1841.23 1373.55 1840.68 1370.83 1840.68 1296.27 1841.23 1293.55 1842.73 1291.33 1844.96 1289.83 1847.68 1289.28 1978.41 1289.28 1977.57 1288.04 1973.85 1285.54 1969.3 1284.62Z" fill-rule="evenodd"/><path d="M1978.41 1289.28 1969.3 1289.28 1972.03 1289.83 1974.26 1291.33 1975.77 1293.55 1976.32 1296.27 1976.32 1370.83 1975.77 1373.55 1974.26 1375.77 1972.03 1377.27 1969.3 1377.82 1978.41 1377.82 1980.07 1375.36 1981 1370.83 1981 1296.27 1980.07 1291.74 1978.41 1289.28Z" fill-rule="evenodd"/><path d="M1886.76 1262 1883.45 1265.3 1902.85 1284.62 1914.14 1284.62 1915.11 1283.65 1908.49 1283.65 1886.76 1262Z" fill-rule="evenodd"/><path d="M1930.23 1262 1908.49 1283.65 1915.11 1283.65 1933.53 1265.3 1930.23 1262Z" fill-rule="evenodd"/><path d="M1909.4 1493 1892.2 1494.26 1875.79 1497.93 1860.33 1503.82 1846.02 1511.75 1833.04 1521.55 1821.55 1533.04 1811.75 1546.02 1803.82 1560.33 1797.93 1575.79 1794.26 1592.21 1793 1609.41 1794.26 1626.61 1797.93 1643.02 1803.82 1658.48 1811.75 1672.79 1821.55 1685.78 1833.04 1697.26 1846.02 1707.06 1860.33 1714.99 1875.79 1720.88 1892.2 1724.55 1909.4 1725.81 1926.61 1724.55 1943.02 1720.88 1958.48 1714.99 1972.79 1707.06 1985.77 1697.26 1997.26 1685.78 2007.06 1672.79 2014.99 1658.48 2020.88 1643.02 2024.55 1626.61 2025.81 1609.41 2024.55 1592.21 2020.88 1575.79 2014.99 1560.33 2007.06 1546.02 1997.26 1533.04 1985.77 1521.55 1972.79 1511.75 1958.48 1503.82 1943.02 1497.93 1926.61 1494.26 1909.4 1493Z" fill="#FCC00C" fill-rule="evenodd"/><path d="M1910.94 1530 1896.35 1532.94 1884.43 1540.96 1876.39 1552.83 1873.44 1567.36 1875.14 1578.5 1879.9 1588.3 1887.2 1596.25 1896.52 1601.84 1881.44 1607.72 1868.63 1617.17 1858.7 1629.57 1852.28 1644.31 1850 1660.76 1850 1674.77 1971.87 1674.77 1971.87 1670.11 1854.69 1670.11 1854.69 1660.76 1857.56 1643.07 1865.56 1627.69 1877.74 1615.55 1893.18 1607.59 1910.94 1604.72 1932.75 1604.72 1925.35 1601.84 1928.33 1600.05 1910.94 1600.05 1898.18 1597.48 1887.75 1590.47 1880.71 1580.08 1878.13 1567.36 1878.17 1566.61 1878.18 1566.22 1884.11 1561.87 1885.75 1560.08 1878.97 1560.08 1880.74 1554.65 1883.38 1549.68 1886.82 1545.27 1890.94 1541.5 1899.85 1541.5 1897.52 1537.56 1900.67 1536.33 1903.97 1535.43 1907.4 1534.86 1910.94 1534.67 1928.09 1534.67 1925.52 1532.94 1910.94 1530Z" fill-rule="evenodd"/><path d="M1932.75 1604.72 1910.94 1604.72 1928.69 1607.59 1944.13 1615.55 1956.31 1627.69 1964.31 1643.07 1967.18 1660.76 1967.18 1670.11 1971.87 1670.11 1971.87 1660.76 1969.59 1644.31 1963.17 1629.57 1953.24 1617.17 1940.42 1607.72 1932.75 1604.72Z" fill-rule="evenodd"/><path d="M1946.79 1559.3 1942.69 1559.3 1943.35 1561.89 1943.74 1564.58 1943.74 1567.36 1941.16 1580.08 1934.12 1590.47 1923.69 1597.48 1910.94 1600.05 1928.33 1600.05 1934.67 1596.25 1941.97 1588.3 1946.73 1578.5 1948.43 1567.36 1946.79 1559.3Z" fill-rule="evenodd"/><path d="M1901.1 1543.62 1895.22 1543.62 1901.14 1551.5 1908.78 1557.51 1917.74 1561.35 1927.6 1562.69 1931.44 1562.47 1935.24 1561.82 1938.99 1560.76 1942.69 1559.3 1946.79 1559.3 1946.53 1558.02 1927.6 1558.02 1918 1556.55 1909.47 1552.4 1902.47 1545.94 1901.1 1543.62Z" fill-rule="evenodd"/><path d="M1899.85 1541.5 1890.94 1541.5 1889.22 1546.87 1886.6 1551.83 1883.16 1556.27 1878.97 1560.08 1885.75 1560.08 1888.99 1556.55 1892.73 1550.41 1895.22 1543.62 1901.1 1543.62 1899.85 1541.5Z" fill-rule="evenodd"/><path d="M1928.09 1534.67 1910.94 1534.67 1920.73 1536.16 1929.34 1540.32 1936.33 1546.7 1941.23 1554.84 1937.88 1556.21 1934.49 1557.21 1931.06 1557.81 1927.6 1558.02 1946.53 1558.02 1945.48 1552.83 1937.44 1540.96 1928.09 1534.67Z" fill-rule="evenodd"/><path d="M2174.4 1220 2157.2 1221.26 2140.78 1224.93 2125.33 1230.82 2111.02 1238.75 2098.03 1248.55 2086.55 1260.04 2076.75 1273.02 2068.82 1287.33 2062.93 1302.79 2059.26 1319.21 2058 1336.41 2059.26 1353.61 2062.93 1370.03 2068.82 1385.48 2076.75 1399.79 2086.55 1412.78 2098.03 1424.26 2111.02 1434.06 2125.33 1441.99 2140.78 1447.88 2157.2 1451.55 2174.4 1452.81 2191.6 1451.55 2208.02 1447.88 2223.47 1441.99 2237.78 1434.06 2250.77 1424.26 2262.25 1412.78 2272.05 1399.79 2279.98 1385.48 2285.87 1370.03 2289.54 1353.61 2290.8 1336.41 2289.54 1319.21 2285.87 1302.79 2279.98 1287.33 2272.05 1273.02 2262.25 1260.04 2250.77 1248.55 2237.78 1238.75 2223.47 1230.82 2208.02 1224.93 2191.6 1221.26 2174.4 1220Z" fill="#FCC00C" fill-rule="evenodd"/><path d="M2219.77 1258 2201.11 1261.66 2185.72 1271.68 2175.06 1286.57 2170.6 1304.89 2161.34 1307.48 2153.85 1313.08 2148.83 1320.99 2147 1330.5 2147 1377.27 2149.03 1387.28 2154.57 1395.45 2162.78 1400.97 2172.82 1403 2182.86 1400.97 2186.81 1398.32 2172.82 1398.32 2164.61 1396.66 2157.89 1392.15 2153.36 1385.46 2151.69 1377.27 2151.69 1332.84 2198.64 1332.84 2198.64 1330.5 2198.2 1328.16 2151.93 1328.16 2153.92 1321.33 2157.96 1315.69 2163.62 1311.67 2170.48 1309.69 2187.29 1309.69 2184.46 1307.54 2175.29 1304.9 2179.38 1288.4 2189.03 1274.99 2202.93 1265.97 2219.77 1262.68 2219.77 1258Z" fill-rule="evenodd"/><path d="M2198.64 1332.84 2193.95 1332.84 2193.95 1377.27 2192.29 1385.46 2187.76 1392.15 2181.04 1396.66 2172.82 1398.32 2186.81 1398.32 2191.07 1395.45 2196.61 1387.28 2198.64 1377.27 2198.64 1332.84Z" fill-rule="evenodd"/><path d="M2175.17 1309.69 2170.48 1309.69 2170.48 1328.16 2175.17 1328.16 2175.17 1309.69Z" fill-rule="evenodd"/><path d="M2187.29 1309.69 2175.17 1309.69 2182.03 1311.67 2187.69 1315.69 2191.73 1321.33 2193.71 1328.16 2198.2 1328.16 2196.83 1321.04 2191.87 1313.15 2187.29 1309.69Z" fill-rule="evenodd"/><path d="M2174.41 1493 2157.2 1494.26 2140.78 1497.93 2125.33 1503.82 2111.02 1511.75 2098.03 1521.55 2086.55 1533.03 2076.75 1546.02 2068.82 1560.33 2062.93 1575.78 2059.26 1592.2 2058 1609.4 2059.26 1626.6 2062.93 1643.02 2068.82 1658.47 2076.75 1672.78 2086.55 1685.77 2098.03 1697.25 2111.02 1707.05 2125.33 1714.99 2140.78 1720.88 2157.2 1724.54 2174.41 1725.81 2191.61 1724.54 2208.02 1720.88 2223.48 1714.99 2237.78 1707.05 2250.77 1697.25 2262.25 1685.77 2272.05 1672.78 2279.98 1658.47 2285.87 1643.02 2289.54 1626.6 2290.8 1609.4 2289.54 1592.2 2285.87 1575.78 2279.98 1560.33 2272.05 1546.02 2262.25 1533.03 2250.77 1521.55 2237.78 1511.75 2223.48 1503.82 2208.02 1497.93 2191.61 1494.26 2174.41 1493Z" fill="#FCC00C" fill-rule="evenodd"/><path d="M2164.73 1630.99 2160.09 1630.99 2160.09 1664.86 2161.19 1670.28 2164.17 1674.7 2168.6 1677.69 2174.01 1678.78 2179.41 1677.69 2183.83 1674.7 2184.21 1674.14 2174.01 1674.14 2170.4 1673.41 2167.45 1671.42 2165.46 1668.47 2164.73 1664.86 2164.73 1630.99Z" fill-rule="evenodd"/><path d="M2184.2 1539.64 2174.01 1539.64 2177.61 1540.37 2180.55 1542.36 2182.54 1545.31 2183.27 1548.92 2183.27 1585.47 2174.01 1590.82 2183.27 1590.82 2183.27 1596.18 2174.01 1596.18 2183.27 1601.54 2183.27 1612.24 2174.01 1617.6 2183.27 1617.6 2183.27 1622.96 2174.01 1622.96 2183.27 1628.31 2183.27 1664.86 2182.54 1668.47 2180.55 1671.42 2177.61 1673.41 2174.01 1674.14 2184.21 1674.14 2186.81 1670.28 2187.91 1664.86 2187.91 1630.99 2197.19 1630.99 2187.91 1625.64 2187.91 1614.93 2197.18 1609.57 2187.91 1609.57 2187.91 1604.22 2197.18 1604.22 2187.91 1598.85 2187.91 1588.15 2197.18 1582.79 2187.91 1582.79 2187.91 1548.92 2186.81 1543.51 2184.2 1539.64Z" fill-rule="evenodd"/><path d="M2126.24 1563.99 2123.81 1563.99 2120.19 1564.47 2116.86 1565.86 2113.99 1568.05 2111.76 1570.95 2110 1576.18 2110.37 1581.51 2112.71 1586.3 2116.85 1589.96 2146.18 1606.89 2116.85 1623.82 2112.71 1627.48 2110.37 1632.28 2110 1637.6 2111.76 1642.83 2113.99 1645.74 2116.86 1647.93 2120.19 1649.31 2123.81 1649.8 2126.24 1649.8 2128.65 1649.15 2135.78 1645.03 2124.99 1645.03 2121.42 1644.74 2118.19 1643.2 2115.77 1640.52 2114.6 1637.03 2114.85 1633.48 2116.41 1630.28 2119.17 1627.84 2150.82 1609.57 2160.09 1609.57 2155.46 1606.89 2160.09 1604.22 2150.82 1604.22 2117.02 1584.69 2115.49 1582.7 2114.2 1577.92 2114.54 1575.41 2123.81 1568.62 2135.56 1568.62 2128.65 1564.64 2126.24 1563.99Z" fill-rule="evenodd"/><path d="M2197.19 1630.99 2187.91 1630.99 2219.35 1649.15 2221.76 1649.8 2224.19 1649.8 2227.82 1649.31 2231.15 1647.93 2234.01 1645.74 2234.46 1645.16 2222.57 1645.16 2220.98 1644.73 2197.19 1630.99Z" fill-rule="evenodd"/><path d="M2234.45 1568.62 2224.19 1568.62 2226.61 1568.95 2228.83 1569.87 2230.74 1571.34 2232.23 1573.27 2233.4 1576.76 2233.15 1580.3 2231.59 1583.5 2228.83 1585.94 2197.18 1604.22 2187.91 1604.22 2192.55 1606.89 2187.91 1609.57 2197.18 1609.57 2230.98 1629.09 2232.52 1631.08 2233.8 1635.87 2233.47 1638.37 2224.19 1645.16 2234.46 1645.16 2236.24 1642.83 2238 1637.6 2237.63 1632.28 2235.29 1627.48 2231.15 1623.82 2201.82 1606.89 2231.15 1589.96 2235.29 1586.3 2237.63 1581.51 2238 1576.18 2236.24 1570.95 2234.45 1568.62Z" fill-rule="evenodd"/><path d="M2135.56 1568.62 2125.43 1568.62 2127.04 1569.06 2160.09 1588.15 2160.09 1598.85 2150.82 1604.22 2160.09 1604.22 2160.09 1609.57 2150.82 1609.57 2160.09 1614.93 2160.09 1625.64 2128.44 1643.91 2124.99 1645.03 2135.78 1645.03 2160.09 1630.99 2164.73 1630.99 2164.73 1628.31 2174.01 1622.96 2164.73 1622.96 2164.73 1617.6 2174.01 1617.6 2164.73 1612.24 2164.73 1601.54 2174.01 1596.18 2164.73 1596.18 2164.73 1590.82 2174.01 1590.82 2164.73 1585.47 2164.73 1582.79 2160.09 1582.79 2135.56 1568.62Z" fill-rule="evenodd"/><path d="M2183.27 1617.6 2164.73 1617.6 2169.37 1620.28 2164.73 1622.96 2183.27 1622.96 2178.63 1620.28 2183.27 1617.6Z" fill-rule="evenodd"/><path d="M2183.27 1590.82 2164.73 1590.82 2169.37 1593.5 2164.73 1596.18 2183.27 1596.18 2178.63 1593.5 2183.27 1590.82Z" fill-rule="evenodd"/><path d="M2174.01 1535 2168.6 1536.1 2164.17 1539.08 2161.19 1543.51 2160.09 1548.92 2160.09 1582.79 2164.73 1582.79 2164.73 1548.92 2165.46 1545.31 2167.45 1542.36 2170.4 1540.37 2174.01 1539.64 2184.2 1539.64 2183.83 1539.08 2179.41 1536.1 2174.01 1535Z" fill-rule="evenodd"/><path d="M2224.19 1563.99 2221.76 1563.99 2219.35 1564.64 2187.91 1582.79 2197.18 1582.79 2219.56 1569.87 2220.98 1569.06 2222.57 1568.62 2234.45 1568.62 2234.01 1568.05 2231.15 1565.86 2227.82 1564.47 2224.19 1563.99Z" fill-rule="evenodd"/><path d="M1567.7 1583.39 1508 1643.09 1567.7 1702.78 1567.7 1655.03 1746.78 1655.03 1746.78 1631.15 1567.7 1631.15 1567.7 1583.39Z" fill="#FCC00C" fill-rule="evenodd"/><path d="M1567.7 1464 1508 1523.7 1567.7 1583.39 1567.7 1535.64 1746.78 1535.64 1746.78 1511.76 1567.7 1511.76 1567.7 1464Z" fill="#FCC00C" fill-rule="evenodd"/><path d="M771.5 1081.5 771.5 2254.45" stroke="#FCC00C" stroke-width="4.58333" stroke-linejoin="round" stroke-miterlimit="10" stroke-dasharray="4.58333 13.75" fill="none" fill-rule="evenodd"/><path d="M780.5 2259.5 2360.33 2259.5" stroke="#FCC00C" stroke-width="4.58333" stroke-linejoin="round" stroke-miterlimit="10" stroke-dasharray="4.58333 13.75" fill="none" fill-rule="evenodd"/><path d="M2364.5 2250.45 2364.5 1076.5" stroke="#FCC00C" stroke-width="4.58333" stroke-linejoin="round" stroke-miterlimit="10" stroke-dasharray="4.58333 13.75" fill="none" fill-rule="evenodd"/><path d="M2355.33 1071.5 775.5 1071.5" stroke="#FCC00C" stroke-width="4.58333" stroke-linejoin="round" stroke-miterlimit="10" stroke-dasharray="4.58333 13.75" fill="none" fill-rule="evenodd"/><path d="M772.583 2258.61 771.913 2256.99 770.291 2256.32 768.669 2256.99 768 2258.61 768.669 2260.23 770.291 2260.9 771.913 2260.23 772.583 2258.61Z" fill="#FCC00C" fill-rule="evenodd"/><path d="M772.583 1071.29 771.913 1069.67 770.291 1069 768.669 1069.67 768 1071.29 768.669 1072.91 770.291 1073.58 771.913 1072.91 772.583 1071.29Z" fill="#FCC00C" fill-rule="evenodd"/><path d="M2365.82 2258.61 2365.15 2256.99 2363.53 2256.32 2361.91 2256.99 2361.24 2258.61 2361.91 2260.23 2363.53 2260.9 2365.15 2260.23 2365.82 2258.61Z" fill="#FCC00C" fill-rule="evenodd"/><path d="M2365.82 1071.29 2365.15 1069.67 2363.53 1069 2361.91 1069.67 2361.24 1071.29 2361.91 1072.91 2363.53 1073.58 2365.15 1072.91 2365.82 1071.29Z" fill="#FCC00C" fill-rule="evenodd"/><text font-family="Tahoma,Tahoma_MSFontService,sans-serif" font-weight="700" font-size="46" transform="matrix(1 0 0 1 1111.91 1994)">Imagen</text><text font-family="Tahoma,Tahoma_MSFontService,sans-serif" font-weight="700" font-size="46" transform="matrix(1 0 0 1 1296.48 1994)">1.1.</text><text font-family="Tahoma,Tahoma_MSFontService,sans-serif" font-weight="700" font-size="46" transform="matrix(1 0 0 1 1391.4 1994)">Un</text><text font-family="Tahoma,Tahoma_MSFontService,sans-serif" font-weight="700" font-size="46" transform="matrix(1 0 0 1 1464.36 1994)">Sistema</text><text font-family="Tahoma,Tahoma_MSFontService,sans-serif" font-weight="700" font-size="46" transform="matrix(1 0 0 1 1653.18 1994)">de</text><text font-family="Tahoma,Tahoma_MSFontService,sans-serif" font-weight="700" font-size="46" transform="matrix(1 0 0 1 1719.01 1994)">Organizaci칩n.</text><text font-family="Arial,Arial_MSFontService,sans-serif" font-weight="400" font-size="46" transform="matrix(1 0 0 1 820.246 2061)">Un</text><text font-family="Arial,Arial_MSFontService,sans-serif" font-weight="400" font-size="46" transform="matrix(1 0 0 1 895.802 2061)">Sistema</text><text font-family="Arial,Arial_MSFontService,sans-serif" font-weight="400" font-size="46" transform="matrix(1 0 0 1 1078.33 2061)">de</text><text font-family="Arial,Arial_MSFontService,sans-serif" font-weight="400" font-size="46" transform="matrix(1 0 0 1 1146.3 2061)">Organizaci칩n</text><text font-family="Arial,Arial_MSFontService,sans-serif" font-weight="400" font-size="46" transform="matrix(1 0 0 1 1433.31 2061)">es</text><text font-family="Arial,Arial_MSFontService,sans-serif" font-weight="400" font-size="46" transform="matrix(1 0 0 1 1498.72 2061)">un</text><text font-family="Arial,Arial_MSFontService,sans-serif" font-weight="400" font-size="46" transform="matrix(1 0 0 1 1566.69 2061)">conjunto</text><text font-family="Arial,Arial_MSFontService,sans-serif" font-weight="400" font-size="46" transform="matrix(1 0 0 1 1756.94 2061)">de</text><text font-family="Arial,Arial_MSFontService,sans-serif" font-weight="400" font-size="46" transform="matrix(1 0 0 1 1824.91 2061)">recursos</text><text font-family="Arial,Arial_MSFontService,sans-serif" font-weight="400" font-size="46" transform="matrix(1 0 0 1 2017.64 2061)">que</text><text font-family="Arial,Arial_MSFontService,sans-serif" font-weight="400" font-size="46" transform="matrix(1 0 0 1 2111.1 2061)">posibilitan</text><text font-family="Arial,Arial_MSFontService,sans-serif" font-weight="400" font-size="46" transform="matrix(1 0 0 1 820.246 2125)">que</text><text font-family="Arial,Arial_MSFontService,sans-serif" font-weight="400" font-size="46" transform="matrix(1 0 0 1 922.661 2125)">las</text><text font-family="Arial,Arial_MSFontService,sans-serif" font-weight="400" font-size="46" transform="matrix(1 0 0 1 1007.2 2125)">personas</text><text font-family="Arial,Arial_MSFontService,sans-serif" font-weight="400" font-size="46" transform="matrix(1 0 0 1 1221.68 2125)">o</text><text font-family="Arial,Arial_MSFontService,sans-serif" font-weight="400" font-size="46" transform="matrix(1 0 0 1 1273.13 2125)">los</text><text font-family="Arial,Arial_MSFontService,sans-serif" font-weight="400" font-size="46" transform="matrix(1 0 0 1 1357.66 2125)">agentes</text><text font-family="Arial,Arial_MSFontService,sans-serif" font-weight="400" font-size="46" transform="matrix(1 0 0 1 1546.7 2125)">inform치ticos</text><text font-family="Arial,Arial_MSFontService,sans-serif" font-weight="400" font-size="46" transform="matrix(1 0 0 1 1819.69 2125)">puedan</text><text font-family="Arial,Arial_MSFontService,sans-serif" font-weight="400" font-size="46" transform="matrix(1 0 0 1 1998.53 2125)">interactuar</text><text font-family="Arial,Arial_MSFontService,sans-serif" font-weight="400" font-size="46" transform="matrix(1 0 0 1 2240.99 2125)">con</text><text font-family="Arial,Arial_MSFontService,sans-serif" font-weight="400" font-size="46" transform="matrix(1 0 0 1 820.246 2189)">ellos</text><text font-family="Arial,Arial_MSFontService,sans-serif" font-weight="400" font-size="46" transform="matrix(1 0 0 1 914.479 2189)">.</text><text font-family="Arial,Arial_MSFontService,sans-serif" font-weight="400" font-size="37" transform="matrix(1 0 0 1 1815.39 1837)">Interacciones</text><text font-family="Arial,Arial_MSFontService,sans-serif" font-weight="400" font-size="37" transform="matrix(1 0 0 1 2046.23 1837)">permitidas</text><text font-family="Arial,Arial_MSFontService,sans-serif" font-weight="400" font-size="37" transform="matrix(1 0 0 1 864.359 1837)">Colecci칩n</text><text font-family="Arial,Arial_MSFontService,sans-serif" font-weight="400" font-size="37" transform="matrix(1 0 0 1 1037.15 1837)">de</text><text font-family="Arial,Arial_MSFontService,sans-serif" font-weight="400" font-size="37" transform="matrix(1 0 0 1 1089.74 1837)">recursos</text><text font-family="Arial,Arial_MSFontService,sans-serif" font-weight="400" font-size="37" transform="matrix(1 0 0 1 1242.39 1837)">organizada</text></g></svg>